<?xml version="1.0" encoding="UTF-8" standalone="no"?>
<svg
   xmlns:dc="http://purl.org/dc/elements/1.1/"
   xmlns:cc="http://creativecommons.org/ns#"
   xmlns:rdf="http://www.w3.org/1999/02/22-rdf-syntax-ns#"
   xmlns:svg="http://www.w3.org/2000/svg"
   xmlns="http://www.w3.org/2000/svg"
   xmlns:xlink="http://www.w3.org/1999/xlink"
   xmlns:sodipodi="http://sodipodi.sourceforge.net/DTD/sodipodi-0.dtd"
   xmlns:inkscape="http://www.inkscape.org/namespaces/inkscape"
   width="128"
   height="128"
   id="svg2"
   version="1.1"
   inkscape:version="1.0 (4035a4fb49, 2020-05-01)"
   sodipodi:docname="avatar.svg"
   inkscape:export-filename="D:\wamp64\www\gro\public\images\icons\avatar1.png"
   inkscape:export-xdpi="96"
   inkscape:export-ydpi="96">
  <defs
     id="defs4">
    <linearGradient
       inkscape:collect="always"
       id="linearGradient4540">
      <stop
         style="stop-color:#00aa31;stop-opacity:1"
         offset="0"
         id="stop4536" />
      <stop
         style="stop-color:#ffffff;stop-opacity:1"
         offset="1"
         id="stop4538" />
    </linearGradient>
    <linearGradient
       id="linearGradient3890">
      <stop
         style="stop-color:#6e6e6e;stop-opacity:1;"
         offset="0"
         id="stop3892" />
      <stop
         style="stop-color:#181818;stop-opacity:0.35460994;"
         offset="1"
         id="stop3894" />
    </linearGradient>
    <linearGradient
       inkscape:collect="always"
       xlink:href="#linearGradient3890"
       id="linearGradient3896"
       x1="5.9445658"
       y1="20.243834"
       x2="22.990252"
       y2="20.243834"
       gradientUnits="userSpaceOnUse"
       gradientTransform="matrix(2.5924108,0,0,2.5496295,160.24273,926.95732)" />
    <linearGradient
       gradientTransform="matrix(1.0844293,0,0,1.0844293,90.861805,-131.06717)"
       inkscape:collect="always"
       xlink:href="#linearGradient12-4-5"
       id="linearGradient14-1"
       x1="14.394674"
       y1="1113.1758"
       x2="47.268047"
       y2="1074.3993"
       gradientUnits="userSpaceOnUse" />
    <linearGradient
       inkscape:collect="always"
       id="linearGradient12-4-5">
      <stop
         style="stop-color:#4d4d4d;stop-opacity:1;"
         offset="0"
         id="stop8" />
      <stop
         style="stop-color:#ffffff;stop-opacity:1"
         offset="1"
         id="stop10" />
    </linearGradient>
    <linearGradient
       gradientTransform="translate(-5.3689008,-1089.0851)"
       inkscape:collect="always"
       xlink:href="#linearGradient5173"
       id="linearGradient14"
       x1="14.394674"
       y1="1113.1758"
       x2="57.326157"
       y2="1065.446"
       gradientUnits="userSpaceOnUse" />
    <linearGradient
       id="linearGradient5173"
       inkscape:collect="always">
      <stop
         id="stop5169"
         offset="0"
         style="stop-color:#00aa31;stop-opacity:1" />
      <stop
         id="stop5171"
         offset="1"
         style="stop-color:#ffffff;stop-opacity:0" />
    </linearGradient>
    <linearGradient
       inkscape:collect="always"
       xlink:href="#linearGradient4540"
       id="linearGradient4534"
       gradientUnits="userSpaceOnUse"
       gradientTransform="matrix(1.1899013,0,0,1.1899013,86.187948,-250.33776)"
       x1="14.394674"
       y1="1113.1758"
       x2="53.961613"
       y2="1064.6385" />
  </defs>
  <sodipodi:namedview
     id="base"
     pagecolor="#ffffff"
     bordercolor="#666666"
     borderopacity="1.0"
     inkscape:pageopacity="0.0"
     inkscape:pageshadow="2"
     inkscape:zoom="1"
     inkscape:cx="36.106336"
     inkscape:cy="56.385928"
     inkscape:document-units="px"
     inkscape:current-layer="layer1"
     showgrid="false"
     inkscape:window-width="1440"
     inkscape:window-height="837"
     inkscape:window-x="1272"
     inkscape:window-y="149"
     inkscape:window-maximized="1"
     inkscape:document-rotation="0"
     lock-margins="false" />
  <metadata
     id="metadata7">
    <rdf:RDF>
      <cc:Work
         rdf:about="">
        <dc:format>image/svg+xml</dc:format>
        <dc:type
           rdf:resource="http://purl.org/dc/dcmitype/StillImage" />
        <dc:title />
      </cc:Work>
    </rdf:RDF>
  </metadata>
  <g
     inkscape:label="Calque 1"
     inkscape:groupmode="layer"
     id="layer1"
     transform="translate(0,-1084.1197)">
    <g
       style="fill:#808080"
       transform="matrix(0.47815854,0,0,0.47815854,32.905407,580.64778)"
       id="g3026" />
    <g
       style="fill:#4d4d4d"
       id="g864"
       transform="matrix(0.55755132,0,0,0.55755132,-117.20271,392.69729)">
      <path
         sodipodi:nodetypes="cccscccccccccccccscccccccccccccccccccccccccccc"
         style="fill:#808080;stroke:#000000;stroke-width:1.694;stroke-miterlimit:4;stroke-dasharray:none;stroke-opacity:1"
         d="m -14.859702,994.81069 c -1.818845,0.0467 -3.601695,0.32142 -4.782819,0.7772 -2.104352,0.81216 -4.574356,2.47356 -6.157878,4.12519 -2.352548,2.45362 -4.304536,7.24222 -4.304536,10.70152 0,2.9581 1.578941,7.4189 3.407757,9.6852 1.953736,2.4214 5.100015,4.5442 8.011221,5.3807 2.074454,0.5959 6.257046,0.6699 8.369932,0.1196 4.0346827,-1.0509 7.9570051,-4.1867 9.86456333,-7.8319 4.61732717,-8.8234 0.0779293,-19.56611 -9.44606633,-22.41944 -1.308002,-0.39184 -3.14333,-0.58481 -4.962174,-0.53807 z m 15.66373015,27.91991 -0.17935569,0.1794 -1.67398646,1.4946 c -1.1790949,1.0896 -2.4399606,2.0497 -3.7664695,2.8099 -0.4147143,0.2239 -0.828893,0.4586 -1.2554898,0.6577 -0.2569101,0.1233 -0.5162727,0.2473 -0.777208,0.3587 -0.6931107,0.2957 -1.3741802,0.5672 -2.0924831,0.7772 -2.8732146,0.8399 -5.9378556,0.9453 -9.0275696,0.3587 -3.635899,-0.6903 -8.308817,-3.2268 -10.462415,-5.6796 l -0.836993,-0.9566 -1.255491,1.0164 c -0.675414,0.561 -1.87162,1.7947 -2.690334,2.7501 -5.57576,6.5068 -8.77576,14.7762 -9.386282,24.1532 l -0.179356,2.6904 0.896779,0.4185 c 1.353557,0.5655 7.418991,1.9605 11.120053,2.5707 2.79139,0.4603 5.402982,0.7403 10.641771,1.1957 1.225613,0.1067 7.866561,0.02 11.8972605,-0.1195 0.00974,0.045 -0.00977,0.074 0,0.1195 0.8780909,-0.077 1.3513604,-0.1096 2.0924829,-0.1793 0.2279913,-0.016 0.7166901,-0.044 0.8369933,-0.06 l 1.1359194,-0.1794 c 0.05414,-0.01 0.1259105,0.01 0.1793556,0 2.4275558,-0.2514 4.47094999,-0.5354 6.2774492,-0.837 3.6551886,-0.6102 9.6039171,-2.0052 10.9406971,-2.5708 l 0.956564,-0.3587 -0.179356,-2.7501 c -0.23744,-3.6926 -0.894007,-7.2194 -1.913127,-10.5222 0,-0.023 -0.276447,-0.6678 -0.358712,-0.8968 -0.376748,-1.1268 -0.788021,-2.2144 -1.25549,-3.2882 -0.0682,-0.1566 -0.109233,-0.3227 -0.179355,-0.4782 -0.133755,-0.2905 -0.275404,-0.6071 -0.4184969,-0.8968 -0.1460864,-0.3032 -0.3247381,-0.5983 -0.4782819,-0.8968 -1.3129678,-2.5521 -2.814459,-4.9897 -4.6632479,-7.1742 -0.808568,-0.9554 -2.023291,-2.1892 -2.6903353,-2.7501 -0.3063452,-0.3066 -1.06669288,-0.8128 -1.25548985,-0.9564 z"
         id="path3002"
         inkscape:connector-curvature="0"
         transform="matrix(0.85760453,0,0,0.85760453,101.45052,162.97398)" />
      <path
         inkscape:export-ydpi="43"
         inkscape:export-xdpi="43"
         inkscape:export-filename="C:\wamp\www\images\icons\add.png"
         sodipodi:nodetypes="cscccscccsccscccscccscscc"
         id="path3006"
         inkscape:connector-curvature="0"
         d="m 106.07906,1078.3781 c -1.02281,-0.6236 -1.06143,0.6557 -1.04233,-5.3835 l -0.0897,-6.5533 -4.87097,-0.1106 c -6.038507,-0.099 -6.11114,-0.1095 -6.73479,-1.1325 -0.311866,-0.5115 -0.348443,0.074 -0.348443,-2.896 0,-2.9753 0.03617,-1.8322 0.350111,-2.3469 0.651478,-1.0687 0.811008,-1.0945 6.643423,-1.0693 2.910059,0.015 4.702849,-0.021 4.826149,-0.1048 0.17126,-0.1083 0.2832,-2.9659 0.22487,-7.1018 -0.0892,-6.3233 -0.14322,-5.6082 4.39499,-5.6968 2.93352,3e-4 2.45986,0.037 2.97062,0.3489 1.02281,0.6235 1.05623,-0.8355 1.13242,5.2032 l 0.0896,7.1054 6.44301,0.089 c 6.03849,0.098 4.57966,0.2 5.20331,1.2227 0.31187,0.5114 0.34844,-0.6257 0.34844,2.3442 0,2.9698 -0.0366,2.3846 -0.34844,2.8961 -0.62365,1.0228 0.83518,0.9452 -5.20331,1.0424 l -6.44301,0.089 -0.0896,6.5534 c -0.0826,6.0387 -0.19969,4.7597 -1.22251,5.3833 -0.51148,0.312 -0.0367,0.3486 -3.00656,0.3486 -2.96981,0 -2.71582,0.074 -3.2273,-0.238 z"
         style="fill:url(#linearGradient4534);fill-opacity:1;stroke:#004200;stroke-width:0.832931;stroke-miterlimit:4;stroke-dasharray:none;stroke-opacity:1" />
    </g>
    <path
       style="fill:#000000;stroke-width:0.161911"
       d="m -1.9045988,1065.2599 c -2.164346,-5.1502 2.142366,-16.4243 8.2674255,-19.5833 2.6931946,-1.3412 5.5490723,-2.0658 8.9391143,-2.2684 l 1.872121,-0.1119 0.961308,0.6509 c 2.267081,1.535 4.06964,2.1428 6.713202,2.2636 1.563948,0.071 2.087269,0.03 3.232437,-0.2603 1.609872,-0.4072 3.080289,-1.0672 4.430209,-1.9886 l 0.975152,-0.6656 1.872121,0.1119 c 5.659523,0.3383 9.62922,2.0011 13.396388,5.5849 4.082976,3.2516 6.174265,11.7589 4.784154,16.9611 -3.610646,10.1891 -50.0288996,9.3381 -55.4436318,-0.6943 z m 24.5004718,-23.0604 c -2.244984,-0.5879 -3.999983,-1.5947 -5.897776,-3.3833 -2.996132,-2.8237 -5.291478,-7.3156 -6.027893,-11.7961 -0.375294,-2.2835 -0.262576,-6.1985 0.23144,-8.0387 1.554348,-5.79 6.131128,-9.4601 12.648194,-10.1425 5.325317,-0.5575 10.806847,1.4323 13.577498,4.9289 2.167092,2.7347 3.109406,5.6624 3.113354,9.673 0.0036,3.6856 -0.781015,6.933 -2.469217,10.2197 -2.857931,5.5638 -7.518481,8.8892 -12.418893,8.8611 -0.996155,0 -1.993114,-0.1221 -2.756707,-0.3221 z m 4.6588,-2.508 c 3.574288,-0.8425 7.066732,-4.3024 9.123078,-9.0382 0.845889,-1.9479 1.135429,-3.2745 1.135851,-5.2042 6.11e-4,-3.6685 -1.238006,-5.4545 -4.087875,-5.8936 -0.578828,-0.089 -2.36389,-0.2065 -3.966803,-0.2606 -4.392364,-0.1483 -6.879923,-0.5856 -9.219276,-1.6201 -1.035401,-0.4578 -1.223928,-0.4875 -1.223928,-0.1922 0,0.4016 -1.633066,2.6942 -2.311933,3.2455 -0.375872,0.3053 -1.210026,0.8184 -1.853674,1.1406 -0.643648,0.322 -1.28585,0.7618 -1.427118,0.9775 -0.624447,0.9531 -0.376769,3.753 0.59548,6.7316 1.489841,4.5645 4.528784,8.2266 8.048254,9.6986 1.639588,0.6857 3.431501,0.8291 5.187944,0.4151 z"
       id="path896"
       sodipodi:nodetypes="ccccscccccccccccsccsscccsccscssccccc" />
    <path
       style="fill:#000000;stroke-width:0.363978"
       d="m -54.585362,1073.3411 c -9.066686,-0.5377 -16.593847,-2.2938 -19.573418,-4.5664 -2.759145,-2.1045 -3.257985,-4.5523 -1.765592,-8.6638 1.984381,-5.4669 4.935913,-8.8324 8.746431,-9.9732 2.065549,-0.6184 2.282208,-0.7883 3.12915,-2.453 0.855507,-1.6816 0.909601,-2.1261 0.904192,-7.4302 -0.0033,-3.103 -0.146847,-7.4434 -0.319304,-9.6454 -0.878935,-11.2232 3.569321,-19.8701 11.229875,-21.8298 2.780163,-0.7111 7.804247,-0.7111 10.58441,0 7.397694,1.8924 12.034258,10.5431 11.304897,21.0921 -0.670721,9.7007 -0.683627,14.0468 -0.04868,16.3925 0.729707,2.6957 1.132157,3.104 3.878434,3.9347 2.504842,0.7577 4.783458,2.6923 6.462824,5.4872 1.636012,2.7228 2.956844,6.448 2.955167,8.3348 -0.0049,5.4443 -7.447865,8.4374 -23.291416,9.3662 -6.312497,0.37 -7.237664,0.3671 -14.196965,-0.046 z m 12.78747,-17.7503 c 2.679458,-2.5754 5.097371,-5.1041 5.373143,-5.6194 0.472444,-0.8827 0.424962,-1.0089 -0.822088,-2.1851 -0.72792,-0.6865 -1.32349,-1.5294 -1.32349,-1.8731 0,-0.4978 -0.36273,-0.3588 -1.78093,0.6823 -3.626168,2.6618 -7.111112,3.0995 -10.776314,1.3535 -1.201127,-0.5722 -2.495886,-1.391 -2.877241,-1.8196 -0.859876,-0.9664 -1.308507,-0.993 -1.308507,-0.078 0,0.3858 -0.589753,1.1876 -1.310561,1.7817 -0.99577,0.8209 -1.25405,1.2584 -1.075299,1.8216 0.241771,0.7617 10.206861,10.6183 10.735215,10.6183 0.161887,0 2.486619,-2.1071 5.166072,-4.6824 z m -1.523361,-10.0487 c 2.781976,-1.4386 5.689403,-4.9065 7.172119,-8.5547 0.449458,-1.1058 0.90751,-1.9697 1.017894,-1.9196 0.58172,0.2637 0.903663,-0.044 1.435096,-1.3723 0.648991,-1.622 0.753606,-3.531 0.238158,-4.3459 -0.286502,-0.4529 -0.453149,-0.4261 -1.127658,0.182 l -0.791474,0.7135 -8.815432,-4.5134 c -9.500762,-4.8644 -9.621834,-4.8979 -11.886201,-3.2855 -1.09997,0.7833 -2.87435,4.0415 -2.87435,5.2781 0,0.4367 -0.368524,1.0391 -0.818948,1.3385 -0.691625,0.4598 -0.810127,0.8422 -0.762183,2.4596 0.0552,1.8628 1.072951,3.9816 1.776208,3.6979 0.164176,-0.066 0.765055,0.9075 1.335279,2.1636 1.919401,4.2284 4.935293,7.4368 8.115065,8.6331 1.413934,0.5319 4.515119,0.286 5.986427,-0.4749 z"
       id="path894"
       sodipodi:nodetypes="ccssscsssssscsscccscscccsccsccsccssccssscscsc" />
    <path
       inkscape:connector-curvature="0"
       id="path3002-0"
       d="m 62.888301,1100.6948 c -2.912113,0.076 -5.766639,0.5148 -7.657718,1.2447 -3.36929,1.2997 -7.323979,3.9601 -9.859318,6.6039 -3.766638,3.9286 -6.891976,11.5958 -6.891976,17.1347 0,4.7357 2.528022,11.8782 5.456118,15.5067 3.128131,3.8767 8.165604,7.2759 12.826718,8.615 3.321407,0.9543 10.018115,1.0727 13.401018,0.1936 6.459917,-1.6827 12.739911,-6.7034 15.794108,-12.5396 7.392751,-14.1269 0.124917,-31.3267 -15.12403,-35.8954 -2.094246,-0.6274 -5.032776,-0.9364 -7.94492,-0.8618 z m 25.079091,44.7021 -0.287304,0.2885 -2.680202,2.3929 c -1.887845,1.7447 -3.906611,3.282 -6.03047,4.4989 -0.664002,0.3568 -1.327108,0.7345 -2.010144,1.053 -0.411367,0.1973 -0.826586,0.3962 -1.244389,0.5741 -1.109737,0.4739 -2.20021,0.9085 -3.350265,1.2448 -4.60028,1.3446 -9.507063,1.5134 -14.45397,0.574 -5.821427,-1.1051 -13.303172,-5.1666 -16.751295,-9.0931 l -1.340104,-1.5317 -2.010142,1.6274 c -1.081422,0.8981 -2.996655,2.873 -4.307485,4.4034 -8.927309,10.4171 -14.050796,23.6578 -15.02832,38.6708 l -0.287279,4.3084 1.435814,0.67 c 2.167203,0.9052 11.878513,3.1387 17.804252,4.1157 4.469272,0.7371 8.650659,1.1851 17.038439,1.9141 1.962337,0.1702 12.595118,0.038 19.048627,-0.1935 0.01701,0.072 -0.01701,0.1182 0,0.1935 1.405903,-0.1216 2.163679,-0.1754 3.350265,-0.2884 0.365044,-0.038 1.147469,-0.072 1.340068,-0.095 l 1.818723,-0.2885 c 0.08671,0 0.201597,0 0.287306,0 3.886757,-0.4023 7.158432,-0.8571 10.050789,-1.3403 5.852297,-0.9769 15.376794,-3.2103 17.517094,-4.1157 l 1.53154,-0.5748 -0.2873,-4.4035 c -0.3802,-5.9117 -1.4314,-11.5582 -3.06312,-16.847 0,-0.038 -0.44263,-1.069 -0.57433,-1.4354 -0.60321,-1.8044 -1.2617,-3.5454 -2.01017,-5.2646 -0.10922,-0.2505 -0.1748,-0.5169 -0.2873,-0.7656 -0.21432,-0.4654 -0.44094,-0.9726 -0.67003,-1.4361 -0.23405,-0.4853 -0.51995,-0.9579 -0.76582,-1.4359 -2.102158,-4.0861 -4.506221,-7.989 -7.466276,-11.4864 -1.294587,-1.5301 -3.239458,-3.5054 -4.307506,-4.4037 -0.490463,-0.4902 -1.707836,-1.3011 -2.010127,-1.5308 z"
       style="fill:#000000;fill-opacity:1;stroke:#000000;stroke-width:2.71227;stroke-miterlimit:4;stroke-dasharray:none;stroke-opacity:1"
       sodipodi:nodetypes="cccscccccccccccccscccccccccccccccccccccccccccc" />
  </g>
</svg>
